<svg xmlns="http://www.w3.org/2000/svg" viewBox="0 0 824 556" font-family="'JetBrains Mono', 'Fira Code', 'SF Mono', 'Cascadia Code', Consolas, 'Liberation Mono', Menlo, monospace" font-size="13" letter-spacing="0.02em">
  <defs>
    <style>
      .bg { fill: #1b1f24; } .titlebar { fill: #252930; } .titlebar-text { fill: #9aa4b2; font-size: 12px; }
      .wm-btn { fill: none; stroke: #5a6270; stroke-width: 1.2; } .wm-icon { fill: #9aa4b2; font-size: 9px; }
      .text { fill: #d2d8e1; } .muted { fill: #7c8796; } .accent { fill: #5aa2ff; } .cyan { fill: #7dd3fc; }
      .green { fill: #2ec66a; } .yellow { fill: #ffd166; } .red { fill: #ff6b6b; } .line { fill: #2e3540; } .bold { font-weight: 700; }
    </style>
  </defs>

  <rect class="titlebar" width="824" height="36" rx="8"/>
  <rect class="bg" x="0" y="28" width="824" height="8"/>
  <text x="412" y="23" class="titlebar-text" text-anchor="middle" font-weight="500">Terminal</text>
  <circle cx="742" cy="18" r="8" class="wm-btn"/><text x="742" y="21" class="wm-icon" text-anchor="middle">−</text>
  <circle cx="770" cy="18" r="8" class="wm-btn"/><rect x="765" y="14" width="10" height="8" rx="1" fill="none" stroke="#9aa4b2" stroke-width="1"/>
  <circle cx="798" cy="18" r="8" class="wm-btn"/><text x="798" y="22" class="wm-icon" text-anchor="middle">✕</text>

  <rect class="bg" x="0" y="36" width="824" height="520"/>
  <path d="M0,548 Q0,556 8,556 L816,556 Q824,556 824,548 L824,536 L0,536 Z" fill="#1b1f24"/>

  <text x="12" y="68" class="muted bold"> Step 2 of 3</text>
  <text x="580" y="68" class="muted bold">Threshold Release TUI</text>
  <line x1="12" y1="78" x2="812" y2="78" stroke="#2e3540" stroke-width="1" stroke-dasharray="4,3"/>

  <text x="12" y="120"><tspan class="muted"> Version</tspan><tspan class="text" dx="48">0.1.8</tspan><tspan class="muted"> (unchanged)</tspan></text>
  <text x="12" y="156"><tspan class="muted"> Tag</tspan><tspan class="yellow" dx="88">v0.1.8</tspan><tspan class="muted"> → update to HEAD</tspan></text>
  <text x="12" y="192"><tspan class="muted"> Commit</tspan><tspan class="text" dx="52">chore(release): redo release 0.1.8</tspan></text>
  <text x="12" y="228"><tspan class="muted"> Files</tspan><tspan class="text" dx="64">0 updated (no version changes)</tspan></text>
  <text x="12" y="264"><tspan class="muted"> Build</tspan><tspan class="text" dx="64">ready (phone AAB + wear AAB)</tspan></text>

  <!-- Redo note -->
  <text x="12" y="316" class="yellow"> Note: This will force-update the local v0.1.8 tag to the current commit.</text>

  <line x1="12" y1="498" x2="812" y2="498" stroke="#2e3540" stroke-width="1" stroke-dasharray="4,3"/>
  <text x="12" y="522" class="muted"> Review (redo)</text>
  <text x="296" y="522" class="muted">Apply: <tspan class="cyan">a</tspan>/<tspan class="cyan">Enter</tspan>  Details: <tspan class="cyan">d</tspan>  Back: <tspan class="cyan">b</tspan>  Help: <tspan class="cyan">?</tspan>  Quit: <tspan class="cyan">q</tspan></text>
</svg>
