<svg xmlns="http://www.w3.org/2000/svg" viewBox="0 0 824 556" font-family="'JetBrains Mono', 'Fira Code', 'SF Mono', 'Cascadia Code', Consolas, 'Liberation Mono', Menlo, monospace" font-size="13" letter-spacing="0.02em">
  <defs>
    <style>
      .bg { fill: #1b1f24; } .titlebar { fill: #252930; } .titlebar-text { fill: #9aa4b2; font-size: 12px; }
      .wm-btn { fill: none; stroke: #5a6270; stroke-width: 1.2; } .wm-icon { fill: #9aa4b2; font-size: 9px; }
      .text { fill: #d2d8e1; } .muted { fill: #7c8796; } .accent { fill: #5aa2ff; } .cyan { fill: #7dd3fc; }
      .green { fill: #2ec66a; } .yellow { fill: #ffd166; } .red { fill: #ff6b6b; } .line { fill: #2e3540; } .bold { font-weight: 700; }
    </style>
  </defs>

  <rect class="titlebar" width="824" height="36" rx="8"/>
  <rect class="bg" x="0" y="28" width="824" height="8"/>
  <text x="412" y="23" class="titlebar-text" text-anchor="middle" font-weight="500">Terminal</text>
  <circle cx="742" cy="18" r="8" class="wm-btn"/><text x="742" y="21" class="wm-icon" text-anchor="middle">−</text>
  <circle cx="770" cy="18" r="8" class="wm-btn"/><rect x="765" y="14" width="10" height="8" rx="1" fill="none" stroke="#9aa4b2" stroke-width="1"/>
  <circle cx="798" cy="18" r="8" class="wm-btn"/><text x="798" y="22" class="wm-icon" text-anchor="middle">✕</text>

  <rect class="bg" x="0" y="36" width="824" height="520"/>
  <path d="M0,548 Q0,556 8,556 L816,556 Q824,556 824,548 L824,536 L0,536 Z" fill="#1b1f24"/>

  <text x="12" y="68" class="muted bold"> Release Log</text>
  <text x="580" y="68" class="muted bold">Threshold Release TUI</text>
  <line x1="12" y1="78" x2="812" y2="78" stroke="#2e3540" stroke-width="1" stroke-dasharray="4,3"/>

  <!-- Column headers -->
  <text x="20" y="108" class="muted bold"> Tag</text>
  <text x="170" y="108" class="muted bold">Version</text>
  <text x="310" y="108" class="muted bold">Date</text>
  <text x="520" y="108" class="muted bold">Status</text>
  <line x1="12" y1="118" x2="812" y2="118" stroke="#2e3540" stroke-width="1" stroke-dasharray="4,3"/>

  <!-- Releases -->
  <text x="20" y="146" class="yellow"> v0.1.8</text>
  <text x="170" y="146" class="text">0.1.8</text>
  <text x="310" y="146" class="muted">2026-02-22</text>
  <text x="520" y="146" class="green">Released</text>

  <text x="20" y="174" class="yellow"> v0.1.7</text>
  <text x="170" y="174" class="text">0.1.7</text>
  <text x="310" y="174" class="muted">2026-02-14</text>
  <text x="520" y="174" class="green">Released</text>

  <text x="20" y="202" class="yellow"> v0.1.6</text>
  <text x="170" y="202" class="text">0.1.6</text>
  <text x="310" y="202" class="muted">(skipped)</text>
  <text x="520" y="202" class="red">versionCode collision</text>

  <text x="20" y="230" class="yellow"> v0.1.5</text>
  <text x="170" y="230" class="text">0.1.5</text>
  <text x="310" y="230" class="muted">2026-01-30</text>
  <text x="520" y="230" class="green">Released</text>

  <text x="20" y="258" class="yellow"> v0.1.4</text>
  <text x="170" y="258" class="text">0.1.4</text>
  <text x="310" y="258" class="muted">2026-01-22</text>
  <text x="520" y="258" class="green">Released</text>

  <text x="20" y="286" class="yellow"> v0.1.3</text>
  <text x="170" y="286" class="text">0.1.3</text>
  <text x="310" y="286" class="muted">2026-01-15</text>
  <text x="520" y="286" class="green">Released</text>

  <text x="20" y="314" class="yellow"> v0.1.2</text>
  <text x="170" y="314" class="text">0.1.2</text>
  <text x="310" y="314" class="muted">2026-01-08</text>
  <text x="520" y="314" class="green">Initial release</text>

  <line x1="12" y1="498" x2="812" y2="498" stroke="#2e3540" stroke-width="1" stroke-dasharray="4,3"/>
  <text x="12" y="522" class="muted"> 7 releases</text>
  <text x="462" y="522" class="muted">Back: <tspan class="cyan">b</tspan>/<tspan class="cyan">Esc</tspan>  Help: <tspan class="cyan">?</tspan>  Quit: <tspan class="cyan">q</tspan></text>
</svg>
