<svg viewBox="0 0 384 384" xmlns="http://www.w3.org/2000/svg" width="384" height="384">
<defs>
  <clipPath id="wc"><circle cx="192.0" cy="192.0" r="192.0"/></clipPath>
  <radialGradient id="depth" cx="50%" cy="45%" r="60%">
    <stop offset="0%" stop-color="#0a0a1e"/>
    <stop offset="100%" stop-color="#050510"/>
  </radialGradient>
  <radialGradient id="vig">
    <stop offset="55%" stop-color="#050510" stop-opacity="0"/>
    <stop offset="100%" stop-color="#000000" stop-opacity="0.85"/>
  </radialGradient>
  <filter id="bloom" x="-30%" y="-30%" width="160%" height="160%">
    <feGaussianBlur stdDeviation="12"/>
  </filter>
  <filter id="inner_glow" x="-50%" y="-50%" width="200%" height="200%">
    <feGaussianBlur stdDeviation="8"/>
  </filter>
  <filter id="mist" x="-30%" y="-30%" width="160%" height="160%">
    <feGaussianBlur stdDeviation="6"/>
  </filter>
  
</defs>
<g clip-path="url(#wc)">
<rect width="384" height="384" fill="url(#depth)"/>
<circle cx="192.0" cy="162.0" r="70" fill="none" stroke="#ffffff" stroke-width="0.8" opacity="0.15">
  <animate attributeName="r" values="70;85;70" dur="4s" begin="0s" repeatCount="indefinite"/>
  <animate attributeName="opacity" values="0.15;0.060;0.15" dur="4s" begin="0s" repeatCount="indefinite"/>
</circle>
<circle cx="192.0" cy="162.0" r="90" fill="none" stroke="#ffffff" stroke-width="0.8" opacity="0.09999999999999999">
  <animate attributeName="r" values="90;105;90" dur="4s" begin="1s" repeatCount="indefinite"/>
  <animate attributeName="opacity" values="0.09999999999999999;0.040;0.09999999999999999" dur="4s" begin="1s" repeatCount="indefinite"/>
</circle>
<circle cx="192.0" cy="162.0" r="110" fill="none" stroke="#ffffff" stroke-width="0.8" opacity="0.04999999999999999">
  <animate attributeName="r" values="110;125;110" dur="4s" begin="2s" repeatCount="indefinite"/>
  <animate attributeName="opacity" values="0.04999999999999999;0.020;0.04999999999999999" dur="4s" begin="2s" repeatCount="indefinite"/>
</circle>
<text x="192.0" y="170.0" text-anchor="middle" font-family="Roboto, sans-serif" font-size="52" font-weight="200" fill="#ffffff" opacity="0.95" letter-spacing="-1px">7:22</text>
<text x="192.0" y="170.0" text-anchor="middle" font-family="Roboto, sans-serif" font-size="52" font-weight="200" fill="#ffffff" opacity="0.05" letter-spacing="-1px" filter="url(#bloom)">7:22</text>
<text x="192.0" y="190.0" text-anchor="middle" font-family="Roboto, sans-serif" font-size="16" fill="#ffffff" opacity="0.7" font-weight="400">Morning</text>
<line x1="162.0" y1="212.0" x2="222.0" y2="212.0" stroke="#ffffff" stroke-width="1" opacity="0.12"/>
<circle cx="192.0" cy="212.0" r="3.5" fill="#ffb74d" opacity="0.85">
  <animate attributeName="opacity" values="0.85;0.3;0.85" dur="2s" repeatCount="indefinite"/>
</circle>
<circle cx="192.0" cy="212.0" r="6" fill="none" stroke="#ffb74d" stroke-width="1" opacity="0.3">
  <animate attributeName="r" values="6;10;6" dur="2s" repeatCount="indefinite"/>
  <animate attributeName="opacity" values="0.3;0.05;0.3" dur="2s" repeatCount="indefinite"/>
</circle>
<path d="M 372.7,250.7 A 190.0,190.0 0 0,1 198.6,381.9 L 196.2,311.9 A 120.0,120.0 0 0,0 306.1,229.1 Z" fill="#C8BFFF" opacity="0.85" />
<path d="M 185.4,381.9 A 190.0,190.0 0 0,1 11.3,250.7 L 77.9,229.1 A 120.0,120.0 0 0,0 187.8,311.9 Z" fill="#1a1a2e" opacity="0.85" />
<path d="M 319.4,233.4 A 134.0,134.0 0 0,1 196.7,325.9 L 196.2,311.9 A 120.0,120.0 0 0,0 306.1,229.1 Z" fill="#C8BFFF" opacity="0.12" filter="url(#inner_glow)"/>
<path d="M 187.4,323.9 A 132.0,132.0 0 0,1 66.5,232.8 L 77.9,229.1 A 120.0,120.0 0 0,0 187.8,311.9 Z" fill="#ffffff" opacity="0.03" filter="url(#inner_glow)"/>
<path d="M 320.0,243.7 A 138.0,138.0 0 0,1 206.4,329.2 L 204.5,311.3 A 120.0,120.0 0 0,0 303.3,237.0 Z" fill="#ffffff" opacity="0.025" />
<line x1="192.0" y1="312.0" x2="192.0" y2="382.0" stroke="#050510" stroke-width="2"/>
<text x="285.2813285885675" y="317.7885040573304" text-anchor="middle" font-family="Roboto, sans-serif" font-size="16" fill="#1E1A34" opacity="0.92" font-weight="600">Stop</text>
<text x="98.7186714114325" y="313.7885040573304" text-anchor="middle" font-family="Roboto, sans-serif" font-size="13" fill="#C8C5D0" opacity="0.8" font-weight="500">Snooze</text>
<text x="98.7186714114325" y="329.7885040573304" text-anchor="middle" font-family="Roboto, sans-serif" font-size="11" fill="#C8C5D0" opacity="0.45" font-weight="400">10m</text>
<rect width="384" height="384" fill="url(#vig)"/>
</g>
</svg>